<svg xmlns="http://www.w3.org/2000/svg" viewBox="0 0 32 32"><path d="M28 16.9v12.8H4V16.6c-1-.9-1.7-2.6-1.7-4.1L5.7 2.2h20.6l3.4 10.3c.1 1.8-.4 3.5-1.7 4.4zM5.7 28h20.6v-3.4H5.7V28zm0-5.1h20.6v-5.2c-.3 0-.5.1-.9.1-1.3 0-2.7-.7-3.4-1.7-.7 1-1.6 1.7-3 1.7-1.2 0-2.3-.9-3-1.7-.7.9-1.8 1.7-3 1.7-1.4 0-2.3-.7-3-1.7-.8 1-2.2 1.7-3.5 1.7-.3 0-.5 0-.8-.1v5.2zM25.2 4H6.8l-2.3 6.9h22.9L25.2 4zM4 12.6C4.2 14 5.3 16 6.5 16s2.7 0 2.7-1.7h1.7s0 1.7 2.1 1.7 2.1-1.7 2.1-1.7h1.8S16.8 16 19 16c2.1 0 2.1-1.7 2.1-1.7H23s0 1.7 2.7 1.7c2.5 0 2.5-3.4 2.5-3.4H4z"></path></svg>