<svg xmlns="http://www.w3.org/2000/svg" version="1.1" id="Capa_1" x="0px" y="0px" viewBox="0 0 46 46" enable-background="new 0 0 46 46" xml:space="preserve" _ngcontent-c4="" class="icon-sub-menu" src="assets/images/submenu/ic_promotion_normal.svg">
<g>
	<path fill="#8AA4AF" d="M26.7,35.8c0,1.2,0.4,1.5,0.8,1.5s0.8-0.4,0.8-1.5c0-1.2-0.4-1.5-0.8-1.5S26.7,34.7,26.7,35.8z"></path>
    <path fill="#8AA4AF" d="M18.4,31.5c0.4,0,0.8-0.4,0.8-1.5c0-1.2-0.4-1.5-0.8-1.5c-0.4,0-0.8,0.4-0.8,1.5   C17.6,31.2,18,31.5,18.4,31.5z"></path>
    <path fill="#8AA4AF" d="M31.9,19.6v-2.7h7.9l-0.3-4.8h-7.6v-3c0-5-4-9-9-9s-9,4-9,9v3H6.3L6,16.9h7.9v2.7h-8L4.3,46h37.4l-1.6-26.4   H31.9L31.9,19.6z M18.4,26.6c1.9,0,3.3,1.3,3.3,3.4c0,2.2-1.4,3.4-3.3,3.4c-1.9,0-3.3-1.2-3.3-3.4C15.1,27.8,16.5,26.6,18.4,26.6z    M30.7,35.8c0,2.2-1.4,3.4-3.3,3.4s-3.3-1.2-3.3-3.4c0-2.2,1.4-3.4,3.3-3.4S30.7,33.7,30.7,35.8z M20.2,39.1h-3l8.5-12.4h3   L20.2,39.1z M16.6,9c0-3.5,2.8-6.3,6.3-6.3s6.3,2.8,6.3,6.3v3H16.5L16.6,9L16.6,9z M16.6,16.9h12.7v2.7H16.6V16.9z"></path>
</g>
</svg>