<?xml version="1.0" encoding="UTF-8" standalone="no"?>
<svg
   xmlns:dc="http://purl.org/dc/elements/1.1/"
   xmlns:cc="http://creativecommons.org/ns#"
   xmlns:rdf="http://www.w3.org/1999/02/22-rdf-syntax-ns#"
   xmlns:svg="http://www.w3.org/2000/svg"
   xmlns="http://www.w3.org/2000/svg"
   xmlns:sodipodi="http://sodipodi.sourceforge.net/DTD/sodipodi-0.dtd"
   xmlns:inkscape="http://www.inkscape.org/namespaces/inkscape"
   viewBox="0 0 75 75"
   version="1.1"
   id="svg10"
   sodipodi:docname="icon-image-align-left.svg"
   inkscape:version="0.92.0 r15299">
  <metadata
     id="metadata14">
    <rdf:RDF>
      <cc:Work
         rdf:about="">
        <dc:format>image/svg+xml</dc:format>
        <dc:type
           rdf:resource="http://purl.org/dc/dcmitype/StillImage" />
      </cc:Work>
    </rdf:RDF>
  </metadata>
  <sodipodi:namedview
     pagecolor="#ffffff"
     bordercolor="#666666"
     borderopacity="1"
     objecttolerance="10"
     gridtolerance="10"
     guidetolerance="10"
     inkscape:pageopacity="0"
     inkscape:pageshadow="2"
     inkscape:window-width="1467"
     inkscape:window-height="1048"
     id="namedview12"
     showgrid="false"
     inkscape:zoom="3.1466667"
     inkscape:cx="37.5"
     inkscape:cy="37.5"
     inkscape:window-x="0"
     inkscape:window-y="0"
     inkscape:window-maximized="0"
     inkscape:current-layer="svg10" />
  <defs
     id="defs4">
    <style
       id="style2">.a{fill:#231f20;}</style>
  </defs>
  <title
     id="title6">icon-image-align-left</title>
  <path
     class="a"
     d="m 36.1455,43.5815 v -2.161 h 28.354 v 2.161 z m 0,-7.561 h 28.354 v 2.16 h -28.354 z m 0,-5.401 h 28.354 v 2.161 h -28.354 z m -25.645,0.021 h 20.259 v 13.74 h -20.259 z m 1.612,11.835 h 17.001 v -9.969 h -17.001 z m 0.829,-3.451 c 0,0 1.355,-1.729 2.677,-1.729 1.997,0 3.254,0.712 3.254,0.712 0,0 3.458,-2.543 5.898,-2.237 2.441,0.305 3.525,1.22 3.525,1.22 v 4.712 h -15.354 z m 3.897,-2.542 c -0.617,0 -1.118,-0.501 -1.118,-1.119 0,-0.618 0.501,-1.119 1.118,-1.119 0.618,0 1.119,0.501 1.119,1.119 0,0.618 -0.5,1.119 -1.119,1.119 z"
     id="path8"
     inkscape:connector-curvature="0"
     style="fill:#231f20" />
</svg>
