<?xml version="1.0" encoding="UTF-8" standalone="no"?>
<svg
   xmlns:dc="http://purl.org/dc/elements/1.1/"
   xmlns:cc="http://creativecommons.org/ns#"
   xmlns:rdf="http://www.w3.org/1999/02/22-rdf-syntax-ns#"
   xmlns:svg="http://www.w3.org/2000/svg"
   xmlns="http://www.w3.org/2000/svg"
   xmlns:sodipodi="http://sodipodi.sourceforge.net/DTD/sodipodi-0.dtd"
   xmlns:inkscape="http://www.inkscape.org/namespaces/inkscape"
   viewBox="0 0 75 75"
   version="1.1"
   id="svg10"
   sodipodi:docname="icon-image-align-right.svg"
   inkscape:version="0.92.0 r15299">
  <metadata
     id="metadata14">
    <rdf:RDF>
      <cc:Work
         rdf:about="">
        <dc:format>image/svg+xml</dc:format>
        <dc:type
           rdf:resource="http://purl.org/dc/dcmitype/StillImage" />
      </cc:Work>
    </rdf:RDF>
  </metadata>
  <sodipodi:namedview
     pagecolor="#ffffff"
     bordercolor="#666666"
     borderopacity="1"
     objecttolerance="10"
     gridtolerance="10"
     guidetolerance="10"
     inkscape:pageopacity="0"
     inkscape:pageshadow="2"
     inkscape:window-width="1306"
     inkscape:window-height="933"
     id="namedview12"
     showgrid="false"
     inkscape:zoom="3.1466667"
     inkscape:cx="37.5"
     inkscape:cy="37.5"
     inkscape:window-x="0"
     inkscape:window-y="0"
     inkscape:window-maximized="0"
     inkscape:current-layer="svg10" />
  <defs
     id="defs4">
    <style
       id="style2">.a{fill:#231f20;}</style>
  </defs>
  <title
     id="title6">icon-image-align-right</title>
  <path
     class="a"
     d="M 44.147,44.412 V 30.609 H 64.5 V 44.412 Z M 62.846,32.484 H 45.767 V 42.498 H 62.846 Z M 49.29,37.295 c 2.006,0 3.269,0.715 3.269,0.715 0,0 3.473,-2.554 5.925,-2.248 2.452,0.307 3.54,1.226 3.54,1.226 v 4.733 H 46.6 v -2.69 c 0,10e-4 1.362,-1.736 2.69,-1.736 z m 1.225,-0.817 c -0.62,0 -1.124,-0.503 -1.124,-1.124 0,-0.621 0.503,-1.124 1.124,-1.124 0.621,0 1.124,0.503 1.124,1.124 0,0.62 -0.503,1.124 -1.124,1.124 z M 10.5,41.439 H 38.985 V 43.61 H 10.5 Z m 0,-5.425 h 28.485 v 2.17 H 10.5 Z m 0,-5.426 h 28.485 v 2.171 H 10.5 Z"
     id="path8"
     inkscape:connector-curvature="0"
     style="fill:#231f20" />
</svg>
