<?xml version="1.0" encoding="UTF-8" standalone="no"?>
<svg
   xmlns:dc="http://purl.org/dc/elements/1.1/"
   xmlns:cc="http://creativecommons.org/ns#"
   xmlns:rdf="http://www.w3.org/1999/02/22-rdf-syntax-ns#"
   xmlns:svg="http://www.w3.org/2000/svg"
   xmlns="http://www.w3.org/2000/svg"
   xmlns:sodipodi="http://sodipodi.sourceforge.net/DTD/sodipodi-0.dtd"
   xmlns:inkscape="http://www.inkscape.org/namespaces/inkscape"
   viewBox="0 0 75 75"
   version="1.1"
   id="svg10"
   sodipodi:docname="icon-image-align-bottom.svg"
   inkscape:version="0.92.0 r15299">
  <metadata
     id="metadata14">
    <rdf:RDF>
      <cc:Work
         rdf:about="">
        <dc:format>image/svg+xml</dc:format>
        <dc:type
           rdf:resource="http://purl.org/dc/dcmitype/StillImage" />
      </cc:Work>
    </rdf:RDF>
  </metadata>
  <sodipodi:namedview
     pagecolor="#ffffff"
     bordercolor="#666666"
     borderopacity="1"
     objecttolerance="10"
     gridtolerance="10"
     guidetolerance="10"
     inkscape:pageopacity="0"
     inkscape:pageshadow="2"
     inkscape:window-width="1325"
     inkscape:window-height="989"
     id="namedview12"
     showgrid="false"
     inkscape:zoom="3.1466667"
     inkscape:cx="96.776949"
     inkscape:cy="37.5"
     inkscape:window-x="0"
     inkscape:window-y="0"
     inkscape:window-maximized="0"
     inkscape:current-layer="svg10" />
  <defs
     id="defs4">
    <style
       id="style2">.a{fill:#231f20;}</style>
  </defs>
  <title
     id="title6">icon-image-align-bottom</title>
  <path
     class="a"
     d="m 23.437,34.157 v -2.143 h 28.126 v 2.143 z m 0,-7.501 h 28.126 v 2.143 H 23.437 Z m 0,-5.356 h 28.126 v 2.143 H 23.437 Z M 47.292,53.7 H 27.196 V 40.071 H 47.292 Z M 45.659,41.921 H 28.795 v 9.889 h 16.864 z m -13.385,4.751 c 1.981,0 3.228,0.706 3.228,0.706 0,0 3.43,-2.521 5.851,-2.219 2.421,0.303 3.496,1.211 3.496,1.211 v 4.674 h -15.23 v -2.656 c -0.001,-10e-4 1.343,-1.716 2.655,-1.716 z m 1.21,-0.807 c -0.613,0 -1.11,-0.496 -1.11,-1.11 0,-0.613 0.497,-1.11 1.11,-1.11 0.613,0 1.11,0.497 1.11,1.11 -10e-4,0.614 -0.497,1.11 -1.11,1.11 z"
     id="path8"
     inkscape:connector-curvature="0"
     style="fill:#231f20" />
</svg>
