<?xml version="1.0" encoding="UTF-8" standalone="no"?>
<svg
   xmlns:dc="http://purl.org/dc/elements/1.1/"
   xmlns:cc="http://creativecommons.org/ns#"
   xmlns:rdf="http://www.w3.org/1999/02/22-rdf-syntax-ns#"
   xmlns:svg="http://www.w3.org/2000/svg"
   xmlns="http://www.w3.org/2000/svg"
   xmlns:sodipodi="http://sodipodi.sourceforge.net/DTD/sodipodi-0.dtd"
   xmlns:inkscape="http://www.inkscape.org/namespaces/inkscape"
   viewBox="0 0 75 75"
   version="1.1"
   id="svg10"
   sodipodi:docname="icon-image-align-middle.svg"
   inkscape:version="0.92.0 r15299">
  <metadata
     id="metadata14">
    <rdf:RDF>
      <cc:Work
         rdf:about="">
        <dc:format>image/svg+xml</dc:format>
        <dc:type
           rdf:resource="http://purl.org/dc/dcmitype/StillImage" />
      </cc:Work>
    </rdf:RDF>
  </metadata>
  <sodipodi:namedview
     pagecolor="#ffffff"
     bordercolor="#666666"
     borderopacity="1"
     objecttolerance="10"
     gridtolerance="10"
     guidetolerance="10"
     inkscape:pageopacity="0"
     inkscape:pageshadow="2"
     inkscape:window-width="1578"
     inkscape:window-height="996"
     id="namedview12"
     showgrid="false"
     inkscape:zoom="3.1466667"
     inkscape:cx="37.5"
     inkscape:cy="37.5"
     inkscape:window-x="0"
     inkscape:window-y="0"
     inkscape:window-maximized="0"
     inkscape:current-layer="svg10" />
  <defs
     id="defs4">
    <style
       id="style2">.a{fill:#231f20;}</style>
  </defs>
  <title
     id="title6">icon-image-align-middle</title>
  <path
     class="a"
     d="M 22.38,59.1 V 56.796 H 52.62 V 59.1 Z m 0,-8.064 H 52.62 V 53.34 H 22.38 Z m 4.042,-6.06 V 30.321 H 48.029 V 44.976 Z M 46.273,32.311 H 28.141 v 10.632 h 18.132 z m -10.922,5.868 c 0,0 3.688,-2.712 6.291,-2.386 2.603,0.326 3.758,1.301 3.758,1.301 v 5.025 H 29.025 v -2.856 c 0,0 1.445,-1.844 2.855,-1.844 2.13,0.001 3.471,0.76 3.471,0.76 z m -2.169,-1.627 c -0.659,0 -1.193,-0.534 -1.193,-1.193 0,-0.659 0.534,-1.193 1.193,-1.193 0.659,0 1.193,0.534 1.193,1.193 0,0.659 -0.534,1.193 -1.193,1.193 z M 22.38,21.659 h 30.24 v 2.305 H 22.38 Z m 0,-5.759 h 30.24 v 2.304 H 22.38 Z"
     id="path8"
     inkscape:connector-curvature="0"
     style="fill:#231f20" />
</svg>
