<svg xmlns="http://www.w3.org/2000/svg" width="100" height="100" viewBox="0 0 100 100">
  <metadata><?xpacket begin="﻿" id="W5M0MpCehiHzreSzNTczkc9d"?>
<x:xmpmeta xmlns:x="adobe:ns:meta/" x:xmptk="Adobe XMP Core 5.6-c142 79.160924, 2017/07/13-01:06:39        ">
   <rdf:RDF xmlns:rdf="http://www.w3.org/1999/02/22-rdf-syntax-ns#">
      <rdf:Description rdf:about=""/>
   </rdf:RDF>
</x:xmpmeta>
                                                                                                    
                                                                                                    
                                                                                                    
                                                                                                    
                                                                                                    
                                                                                                    
                                                                                                    
                                                                                                    
                                                                                                    
                                                                                                    
                                                                                                    
                                                                                                    
                                                                                                    
                                                                                                    
                                                                                                    
                                                                                                    
                                                                                                    
                                                                                                    
                                                                                                    
                                                                                                    
                           
<?xpacket end="w"?></metadata>
<defs>
    <style>
      .cls-1 {
        fill: #231f20;
        fill-rule: evenodd;
      }
    </style>
  </defs>
  <path id="B" class="cls-1" d="M26.47,75.567h29.9q8.209,0,13.355-3.16t5.147-10q0-6.384-3.713-8.86a17.978,17.978,0,0,0-8.339-2.932V49.964a16.723,16.723,0,0,0,4.723-1.792A12.514,12.514,0,0,0,71.812,44.2a11.126,11.126,0,0,0,1.824-6.482,11.059,11.059,0,0,0-4.56-9.512q-4.561-3.323-12.7-3.323H26.47V35.566h3.257V64.882H26.47V75.567Zm21.5-29.316V35.566h3.518a3.7,3.7,0,0,1,2.834,1.01,4.509,4.509,0,0,1,.945,3.16v2.345a4.508,4.508,0,0,1-.945,3.16,3.7,3.7,0,0,1-2.834,1.01H47.968Zm0,18.632V53.677h3.974a3.7,3.7,0,0,1,2.834,1.01,4.51,4.51,0,0,1,.945,3.16v2.866a4.508,4.508,0,0,1-.945,3.16,3.7,3.7,0,0,1-2.834,1.01H47.968Z"/>
</svg>
