<svg xmlns="http://www.w3.org/2000/svg" viewBox="0 0 50 50" width="24px" height="24px"><defs><style>.a{fill:#231f20;}</style></defs><title>icon-left-align</title><path class="a" d="M40.73,33.376a1.1,1.1,0,0,0-.807-.341H10.077a1.164,1.164,0,0,0-1.148,1.148v2.3a1.164,1.164,0,0,0,1.148,1.148H39.923a1.164,1.164,0,0,0,1.148-1.148v-2.3A1.1,1.1,0,0,0,40.73,33.376Zm-6.888-6.888a1.1,1.1,0,0,0-.807-.341H10.077A1.164,1.164,0,0,0,8.929,27.3v2.3a1.164,1.164,0,0,0,1.148,1.148H33.036a1.165,1.165,0,0,0,1.148-1.148V27.3A1.1,1.1,0,0,0,33.843,26.489ZM38.434,19.6a1.1,1.1,0,0,0-.807-.341H10.077a1.164,1.164,0,0,0-1.148,1.148v2.3a1.164,1.164,0,0,0,1.148,1.148h27.55A1.164,1.164,0,0,0,38.775,22.7v-2.3A1.1,1.1,0,0,0,38.434,19.6Zm-6.888-6.888a1.1,1.1,0,0,0-.807-.341H10.077a1.164,1.164,0,0,0-1.148,1.148v2.3a1.164,1.164,0,0,0,1.148,1.148H30.74a1.164,1.164,0,0,0,1.148-1.148v-2.3A1.1,1.1,0,0,0,31.547,12.714Z"/></svg>